<?xml version="1.0" standalone="no"?>
<!DOCTYPE svg PUBLIC "-//W3C//DTD SVG 20010904//EN"
 "http://www.w3.org/TR/2001/REC-SVG-20010904/DTD/svg10.dtd">
<svg version="1.0" xmlns="http://www.w3.org/2000/svg"
 width="512.000000pt" height="512.000000pt" viewBox="0 0 512.000000 512.000000"
 preserveAspectRatio="xMidYMid meet">
<metadata>
Created by potrace 1.11, written by Peter Selinger 2001-2013
</metadata>
<g transform="translate(0.000000,512.000000) scale(0.100000,-0.100000)"
fill="#000000" stroke="none">
<path d="M185 5099 c-61 -23 -118 -76 -153 -143 l-27 -51 0 -2205 c-1 -2426
-6 -2249 62 -2387 32 -66 105 -154 171 -205 31 -25 108 -62 172 -84 53 -18
125 -19 2275 -19 l2220 0 45 22 c111 55 170 154 164 275 -6 109 -82 209 -189
249 -47 18 -123 19 -2199 19 -1182 0 -2151 2 -2153 3 -1 2 -3 973 -3 2158 -1
1658 -4 2163 -13 2192 -18 58 -76 127 -134 159 -68 39 -164 45 -238 17z"/>
<path d="M4775 4725 c-33 -7 -73 -15 -90 -18 -16 -3 -98 -19 -180 -36 -174
-36 -190 -39 -230 -47 -16 -3 -48 -9 -70 -14 -22 -5 -53 -11 -70 -14 -16 -3
-39 -8 -50 -10 -11 -2 -56 -11 -100 -20 -162 -33 -209 -68 -210 -157 0 -72 19
-93 281 -305 l26 -22 -118 -143 c-65 -79 -163 -198 -218 -264 -54 -66 -114
-138 -132 -160 -216 -264 -384 -466 -395 -477 -62 -60 -121 -80 -279 -93 -41
-3 -86 -8 -100 -10 -14 -2 -59 -6 -100 -10 -41 -3 -95 -8 -120 -10 -25 -3 -70
-7 -100 -10 -30 -3 -75 -8 -100 -10 -25 -3 -67 -7 -95 -10 -27 -2 -72 -6 -100
-9 -27 -3 -77 -8 -110 -11 -110 -11 -166 -33 -221 -90 -12 -12 -103 -127 -203
-256 -100 -129 -187 -241 -194 -249 -7 -8 -35 -44 -62 -80 -27 -36 -55 -72
-62 -80 -7 -8 -94 -121 -194 -250 -100 -129 -213 -275 -252 -324 -108 -138
-123 -172 -103 -236 12 -37 29 -53 170 -163 113 -88 135 -101 176 -105 31 -3
57 1 77 12 27 13 154 172 537 670 34 43 68 86 76 95 8 9 35 43 60 76 24 33 50
66 57 75 7 8 54 69 105 135 50 66 105 132 122 147 28 27 106 73 106 63 0 -2
10 -1 23 4 12 5 61 12 107 16 47 3 92 8 100 10 8 2 51 7 95 10 99 7 169 14
215 19 19 3 67 8 105 11 39 3 88 8 110 10 22 3 67 8 100 11 204 18 221 21 279
53 48 25 70 50 380 426 19 22 67 81 108 130 41 50 188 228 327 398 139 169
257 307 263 307 5 0 58 -40 117 -89 163 -136 191 -148 265 -117 34 14 78 63
82 90 5 32 37 899 37 987 0 136 -78 181 -248 144z"/>
</g>
</svg>
